<?xml version="1.0" encoding="UTF-8"?>
<svg width="63px" height="40px" viewBox="0 0 63 40" version="1.1" xmlns="http://www.w3.org/2000/svg" xmlns:xlink="http://www.w3.org/1999/xlink">
    <!-- Generator: Sketch 42 (36781) - http://www.bohemiancoding.com/sketch -->
    <title>Icons/GooglePlus</title>
    <desc>Created with Sketch.</desc>
    <defs>
        <path d="M56.0660377,16.4356436 L56.0660377,9.5049505 L51.1132075,9.5049505 L51.1132075,16.4356436 L43.9811321,16.4356436 L43.9811321,21.3861386 L51.1132075,21.3861386 L51.1132075,28.5148515 L56.0660377,28.5148515 L56.0660377,21.3861386 L63,21.3861386 L63,16.4356436 L56.0660377,16.4356436 L56.0660377,16.4356436 Z M20.009434,16.039604 L20.009434,23.960396 C20.009434,23.960396 27.6970189,23.950099 30.8272075,23.950099 C29.1321509,29.0849505 26.4964528,31.8811881 20.009434,31.8811881 C13.4445566,31.8811881 8.32075472,26.5617822 8.32075472,20 C8.32075472,13.4382178 13.4445566,8.11881188 20.009434,8.11881188 C23.4803774,8.11881188 25.7220283,9.33821782 27.7782453,11.0378218 C29.4241698,9.39267327 29.2866792,9.15821782 33.4741981,5.20554455 C29.9194528,1.97148515 25.1948491,0 20.009434,0 C8.95848113,0 0,8.95425743 0,20 C0,31.0455446 8.95848113,40 20.009434,40 C36.5275189,40 40.5648679,25.6237624 39.2264151,16.039604 L20.009434,16.039604 L20.009434,16.039604 Z" id="path-1"></path>
    </defs>
    <g id="Page-1" stroke="none" stroke-width="1" fill="none" fill-rule="evenodd">
        <g id="Desktop-HD" transform="translate(-734.000000, -1250.000000)">
            <g id="Group" transform="translate(547.000000, 1250.000000)">
                <g id="Icons/GooglePlus" transform="translate(187.000000, 0.000000)">
                    <g id="GooglePlus">
                        <use fill="#F93F2D" xlink:href="#path-1"></use>
                        <use fill="#51545D" xlink:href="#path-1"></use>
                    </g>
                </g>
            </g>
        </g>
    </g>
</svg>