<?xml version="1.0" encoding="UTF-8"?>
<svg width="35px" height="35px" viewBox="0 0 35 35" version="1.1" xmlns="http://www.w3.org/2000/svg" xmlns:xlink="http://www.w3.org/1999/xlink">
    <!-- Generator: Sketch 42 (36781) - http://www.bohemiancoding.com/sketch -->
    <title>Instagram</title>
    <desc>Created with Sketch.</desc>
    <defs></defs>
    <g id="Page-1" stroke="none" stroke-width="1" fill="none" fill-rule="evenodd">
        <g id="Landing" transform="translate(-250.000000, -482.000000)" fill="#FFFFFF">
            <g id="Group-2" transform="translate(121.000000, 482.000000)">
                <path d="M129,0 L164,0 L164,35 L129,35 L129,0 Z M153.768505,26.5474917 C153.860999,26.5317372 153.953747,26.5187778 154.045225,26.4989577 C154.771964,26.3447161 155.365807,25.7384224 155.507851,25.0073632 C155.523098,24.9283367 155.534278,24.8480396 155.547238,24.7687589 L155.547238,10.5287327 C155.534786,10.4507226 155.524114,10.3724584 155.508868,10.2947023 C155.353102,9.49706775 154.695225,8.87806876 153.887426,8.76753322 C153.853884,8.76321344 153.821104,8.75584441 153.788071,8.75 L139.509167,8.75 C139.423025,8.76550039 139.336376,8.7771892 139.251505,8.79650116 C138.463018,8.97615316 137.879593,9.61116075 137.767279,10.4100659 C137.762705,10.4433536 137.755844,10.4763872 137.75,10.5096749 L137.75,24.7885791 C137.766263,24.8790404 137.779222,24.9702639 137.79955,25.060217 C137.973866,25.8311706 138.631997,26.4288248 139.414894,26.5294502 C139.452755,26.5340241 139.490871,26.5413932 139.528733,26.5474917 L153.768505,26.5474917 Z M139.500064,15.7505082 L139.500064,15.798534 C139.500064,18.432329 139.499809,21.066124 139.500318,23.699919 C139.500318,24.078789 139.828367,24.4045512 140.207237,24.4045512 C144.383701,24.4048053 148.559912,24.4048053 152.736376,24.4045512 C153.118804,24.4045512 153.445074,24.0792973 153.445074,23.697632 C153.445328,21.0668863 153.445074,18.4363947 153.445074,15.805903 L153.445074,15.7512705 L151.74613,15.7512705 C151.986005,16.5179043 152.059695,17.2977516 151.965677,18.092591 C151.87115,18.8876846 151.615012,19.6276374 151.197772,20.3109249 C150.780278,20.9949747 150.239035,21.5616281 149.57633,22.0126639 C147.858583,23.1825618 145.597051,23.2854742 143.774358,22.2624488 C142.852975,21.745854 142.129539,21.0254672 141.625141,20.0972228 C140.872737,18.7120982 140.752545,17.2583654 141.193925,15.75 C140.630321,15.7505082 140.069004,15.7505082 139.500064,15.7505082 L139.500064,15.7505082 Z M146.606624,14.0000008 C144.632739,13.9987302 143.028068,15.5868845 143.00037,17.551876 C142.971911,19.5697212 144.587254,21.1693102 146.523786,21.2109833 C148.538836,21.2541811 150.168663,19.6441739 150.211099,17.6860432 C150.254551,15.6666733 148.62574,13.9987302 146.606624,14.0000008 L146.606624,14.0000008 Z M152.49157,13.1705645 L152.49157,13.1672611 C152.784299,13.1672611 153.078044,13.1728514 153.371027,13.1657365 C153.747864,13.1563346 154.054822,12.8333676 154.054822,12.4560221 C154.055076,11.8941967 154.055076,11.3321171 154.054822,10.7702917 C154.054822,10.3672817 153.735921,10.0466016 153.333419,10.0463475 C152.773118,10.0460934 152.212817,10.0458393 151.652263,10.0463475 C151.250777,10.0468557 150.930859,10.3682981 150.930605,10.7713081 C150.930351,11.3283056 150.928826,11.885303 150.932638,12.4425546 C150.933146,12.5256468 150.948901,12.6120424 150.975328,12.6908149 C151.075953,12.987355 151.347591,13.169294 151.680214,13.1708186 C151.950581,13.1713268 152.220949,13.1705645 152.49157,13.1705645 L152.49157,13.1705645 Z" id="Instagram"></path>
            </g>
        </g>
    </g>
</svg>