<?xml version="1.0" encoding="UTF-8"?>
<svg width="35px" height="35px" viewBox="0 0 35 35" version="1.1" xmlns="http://www.w3.org/2000/svg" xmlns:xlink="http://www.w3.org/1999/xlink">
    <!-- Generator: Sketch 42 (36781) - http://www.bohemiancoding.com/sketch -->
    <title>LinkedIN</title>
    <desc>Created with Sketch.</desc>
    <defs></defs>
    <g id="Page-1" stroke="none" stroke-width="1" fill="none" fill-rule="evenodd">
        <g id="Landing" transform="translate(-207.000000, -482.000000)" fill="#FFFFFF">
            <g id="Group-2" transform="translate(121.000000, 482.000000)">
                <path d="M86,0 L121,0 L121,35 L86,35 L86,0 Z M99.0395745,25.7465563 L99.0395745,25.7465563 L99.0395745,13.8307251 L95.0794146,13.8307251 L95.0794146,25.7465563 L99.0395745,25.7465563 Z M97.0595736,12.2043184 C98.4404178,12.2043184 99.3004006,11.2888171 99.3004006,10.1446777 C99.2746976,8.97633804 98.4404178,8.08646067 97.0856721,8.08646067 C95.7309263,8.08646067 94.8452405,8.97633804 94.8452405,10.1446777 C94.8452405,11.2888171 95.7047488,12.2043184 97.0342661,12.2043184 L97.0595736,12.2043184 Z M113.321268,25.7465563 L113.321426,18.9143828 C113.321426,15.2543549 111.367761,13.5509183 108.761793,13.5509183 C106.659209,13.5509183 105.717846,14.7074741 105.19224,15.518819 L105.19224,13.8310414 L101.231605,13.8310414 C101.283802,14.9491614 101.231605,25.7468727 101.231605,25.7468727 L105.19224,25.7468727 L105.19224,19.0920894 C105.19224,18.7359645 105.217943,18.3807095 105.322653,18.1257357 C105.608866,17.4142767 106.260536,16.6776683 107.354613,16.6776683 C108.788208,16.6776683 109.361266,17.7703226 109.361266,19.3715799 L109.361266,25.7465563 L113.321268,25.7465563 Z" id="LinkedIN"></path>
            </g>
        </g>
    </g>
</svg>