<?xml version="1.0" encoding="UTF-8"?>
<svg width="35px" height="35px" viewBox="0 0 35 35" version="1.1" xmlns="http://www.w3.org/2000/svg" xmlns:xlink="http://www.w3.org/1999/xlink">
    <!-- Generator: Sketch 42 (36781) - http://www.bohemiancoding.com/sketch -->
    <title>Twitter</title>
    <desc>Created with Sketch.</desc>
    <defs></defs>
    <g id="Page-1" stroke="none" stroke-width="1" fill="none" fill-rule="evenodd">
        <g id="Landing" transform="translate(-164.000000, -482.000000)" fill="#FFFFFF">
            <g id="Group-2" transform="translate(121.000000, 482.000000)">
                <path d="M43,0 L78,0 L78,35 L43,35 L43,0 Z M62.9308691,10.66513 C61.402966,11.2212377 60.4373313,12.6547597 60.5473403,14.2242192 L60.58401,14.8297587 L59.9728487,14.755611 C57.7482219,14.4713782 55.8047291,13.5074582 54.1545938,11.8885669 L53.347861,11.0853003 L53.1400662,11.6784818 C52.7000301,13.0007823 52.9811642,14.3972305 53.8979061,15.3364346 C54.3868351,15.8554684 54.2768261,15.9296161 53.4334236,15.6206674 C53.1400662,15.5218038 52.8833784,15.4476561 52.858932,15.48473 C52.7733694,15.5712356 53.0667268,16.6958089 53.2989681,17.1406951 C53.6167719,17.7585925 54.2646028,18.364132 54.9735499,18.7225125 L55.5724879,19.0067453 L54.8635408,19.0191033 C54.1790403,19.0191033 54.1545938,19.0314612 54.2279332,19.2909781 C54.4723976,20.0942448 55.4380324,20.9469432 56.5136762,21.3176817 L57.2715161,21.5771986 L56.611462,21.972653 C55.633604,22.5411186 54.4846209,22.8624253 53.3356378,22.8871412 C52.7855926,22.8994991 52.3333333,22.9489309 52.3333333,22.9860048 C52.3333333,23.1095842 53.8245667,23.8016294 54.6924157,24.0735042 C57.2959625,24.8767709 60.3884384,24.5307483 62.7108511,23.159016 C64.3609864,22.1827381 66.0111217,20.2425402 66.7811849,18.364132 C67.1967745,17.3631381 67.6123641,15.5341618 67.6123641,14.6567474 C67.6123641,14.0882818 67.6490338,14.0141341 68.3335344,13.3344469 C68.7369008,12.9389926 69.1158208,12.5064644 69.1891601,12.3828849 C69.3113924,12.1480838 69.2991691,12.1480838 68.6757847,12.358169 C67.6368106,12.7289074 67.4901319,12.6794756 68.0035073,12.1233679 C68.3824273,11.7279136 68.8346866,11.0111526 68.8346866,10.8010674 C68.8346866,10.7639936 68.6513382,10.8257833 68.4435434,10.9370049 C68.2235254,11.0605844 67.7345964,11.2459536 67.3678996,11.3571751 L66.7078455,11.5672603 L66.1089075,11.159448 C65.7788804,10.9370049 65.3143979,10.6898459 65.0699334,10.6156982 C64.446549,10.4426869 63.4931374,10.4674028 62.9308691,10.66513 Z" id="Twitter"></path>
            </g>
        </g>
    </g>
</svg>