<?xml version="1.0" encoding="UTF-8"?>
<svg width="47px" height="40px" viewBox="0 0 47 40" version="1.1" xmlns="http://www.w3.org/2000/svg" xmlns:xlink="http://www.w3.org/1999/xlink">
    <!-- Generator: Sketch 42 (36781) - http://www.bohemiancoding.com/sketch -->
    <title>Vimeo-color</title>
    <desc>Created with Sketch.</desc>
    <defs></defs>
    <g id="Page-1" stroke="none" stroke-width="1" fill="none" fill-rule="evenodd">
        <g id="Desktop-HD" transform="translate(-847.000000, -1250.000000)" fill="#51545D">
            <g id="Group" transform="translate(547.000000, 1250.000000)">
                <path d="M346.805708,9.24812559 C346.601954,13.7561111 343.413471,19.9184782 337.262289,27.7379524 C330.896338,35.9144678 325.502351,40 321.094095,40 C318.368191,40 316.058056,37.5143393 314.17195,32.5266649 C312.908122,27.9505418 311.652553,23.3744187 310.391478,18.8119231 C308.987225,13.8215232 307.483847,11.327686 305.875839,11.327686 C305.526152,11.327686 304.306378,12.0553959 302.202751,13.5135411 L300,10.7035453 C302.307382,8.70029906 304.581722,6.68887627 306.825775,4.68290449 C309.898613,2.05006653 312.208748,0.668235429 313.750674,0.523783657 C317.385213,0.174919 319.626513,2.63605014 320.471818,7.89900055 C321.372193,13.5816787 322.005484,17.1139334 322.355171,18.49849 C323.406984,23.2081629 324.557922,25.5575483 325.818997,25.5575483 C326.796467,25.5575483 328.266804,24.0367164 330.227252,20.9923272 C332.187701,17.942487 333.231254,15.6258076 333.374433,14.0286616 C333.655284,11.3958236 332.606224,10.0875812 330.227252,10.0875812 C329.106603,10.0875812 327.950158,10.3219746 326.763426,10.8125655 C329.076315,3.40191708 333.481817,-0.201200708 339.990947,0.0086631872 C344.812218,0.142212939 347.089312,3.22748475 346.805708,9.24812559" id="Vimeo"></path>
            </g>
        </g>
    </g>
</svg>